<?xml version="1.0" encoding="iso-8859-1"?>
<!-- Generator: Adobe Illustrator 18.1.1, SVG Export Plug-In . SVG Version: 6.00 Build 0)  -->
<svg version="1.1" id="Capa_1" xmlns="http://www.w3.org/2000/svg" xmlns:xlink="http://www.w3.org/1999/xlink" x="0px" y="0px"
	 viewBox="0 0 429.999 429.999" style="enable-background:new 0 0 429.999 429.999;" xml:space="preserve">
<g>
	<g id="Layer_1_40_">
		<g>
			<path d="M368.836,187.68l-86.9-19.558c0.11-0.936,0.177-1.866,0.227-2.801l74.034-83.998c6.599-7.521,6.371-19.021-0.788-26.218
				c-7.474-7.515-19.629-7.55-27.141-0.077l-70.28,69.904l-38.58-19.253l20.391-18.95l0.749-0.696
				c3.412-3.2,5.452-7.817,5.217-12.854l-2.714-57.938c-0.411-8.379-7.289-15.142-15.79-15.24
				c-8.83-0.099-16.071,6.978-16.171,15.805l-0.561,49.378c0,0-18.991,11.434-35.351,31.368
				c-22.477,27.379-30.559,43.986-34.318,58.108c-3.759,14.12-22.296,83.764-22.296,83.764c-0.649,2.461-0.678,4.958-0.19,7.321
				c-5.737,3.419-9.587,9.683-9.587,16.833v6.742H80.805c-19.12,0-34.618,15.498-34.618,34.611c0,19.12,15.498,34.616,34.618,34.616
				h52.448l-34.922,78.461c-2.073,4.659,0.022,10.116,4.681,12.189c1.22,0.543,2.494,0.802,3.747,0.802
				c3.538,0,6.911-2.044,8.441-5.482l38.266-85.97h106.837l38.266,85.97c1.53,3.438,4.903,5.482,8.441,5.482
				c1.252,0,2.526-0.259,3.747-0.802c4.658-2.074,6.755-7.531,4.681-12.189l-34.921-78.461h50.063
				c19.119,0,34.614-15.496,34.614-34.616c0-19.113-15.495-34.611-34.614-34.611h-27.982v-6.742
				c0-10.802-8.788-19.585-19.584-19.585c-10.802,0-19.588,8.783-19.588,19.585v6.742H147.955v-6.742
				c0-3.296-0.823-6.403-2.266-9.132c1.534-1.639,2.758-3.617,3.508-5.889l23.369-70.66l48.43,24.172
				c5.834,2.908,12.019,4.331,18.13,4.438l122.429,19.832c9.917,1.585,19.552-4.788,21.786-14.727
				C385.666,200.275,379.176,190.006,368.836,187.68z M115.208,262.579c0-4.507,2.279-8.494,5.745-10.866
				c1.908,2.724,4.656,4.886,8.042,6.005c3.882,1.284,7.898,0.983,11.376-0.526c0.74,1.646,1.164,3.465,1.164,5.387v6.742h-26.327
				L115.208,262.579L115.208,262.579z M269.852,262.579c0-7.258,5.899-13.164,13.163-13.164c7.257,0,13.163,5.906,13.163,13.164
				v6.742h-26.326V262.579z"/>
			<path d="M101.329,130.094c4.254,2.865,9.074,4.845,14.103,5.826l0.053,0.011c12.46,2.42,25.57-1.592,34.558-10.558
				c9.117-9.101,13.118-22.553,10.463-35.158c-2.588-12.278-11.27-22.789-22.86-27.611c-11.859-4.933-25.687-3.565-36.339,3.612
				C90.654,73.394,84.2,85.698,84.318,98.547C84.439,111.1,90.925,123.091,101.329,130.094z"/>
		</g>
	</g>
</g>
<g>
</g>
<g>
</g>
<g>
</g>
<g>
</g>
<g>
</g>
<g>
</g>
<g>
</g>
<g>
</g>
<g>
</g>
<g>
</g>
<g>
</g>
<g>
</g>
<g>
</g>
<g>
</g>
<g>
</g>
</svg>
