<svg xmlns="http://www.w3.org/2000/svg" xmlns:xlink="http://www.w3.org/1999/xlink" version="1.1" x="0px" y="0px" viewBox="0 0 100 100" style="enable-background:new 0 0 100 100;" xml:space="preserve"><path d="M50,0C22.4,0,0,22.4,0,50s22.4,50,50,50c27.6,0,50-22.4,50-50S77.6,0,50,0z M84.3,57.9c0,1.6-1.3,2.9-2.9,2.9h-63  c-1.6,0-2.9-1.3-2.9-2.9V47.2c0-1.6,1.3-2.9,2.9-2.9h20v-5.9c0-0.8,0.6-1.4,1.4-1.4c0.8,0,1.4,0.6,1.4,1.4v5.9h17.4v-5.9  c0-0.8,0.6-1.4,1.4-1.4c0.8,0,1.4,0.6,1.4,1.4v5.9h20c1.6,0,2.9,1.3,2.9,2.9V57.9z"></path></svg>