<svg xmlns="http://www.w3.org/2000/svg" xmlns:xlink="http://www.w3.org/1999/xlink" version="1.1" x="0px" y="0px" viewBox="0 0 100 100" style="enable-background:new 0 0 100 100;" xml:space="preserve"><g><path d="M50,0C22.4,0,0,22.4,0,50s22.4,50,50,50s50-22.4,50-50S77.6,0,50,0z M33.5,75.8c-5.6,0-10.2-4.6-10.2-10.2   c0-5.2,3.9-9.5,8.9-10.1V24.2h2.6v31.1c5,0.7,8.9,4.9,8.9,10.1C43.7,71.2,39.1,75.8,33.5,75.8z M66.5,75.8   c-5.6,0-10.2-4.6-10.2-10.2c0-5.2,3.9-9.5,8.9-10.1V24.2h2.6v31.1c5,0.7,8.9,4.9,8.9,10.1C76.7,71.2,72.2,75.8,66.5,75.8z"></path><path d="M72.8,65.5c0,3.5-2.8,6.3-6.3,6.3c-3.5,0-6.3-2.8-6.3-6.3c0-3.5,2.8-6.3,6.3-6.3C70,59.2,72.8,62.1,72.8,65.5z"></path><path d="M39.8,65.5c0,3.5-2.8,6.3-6.3,6.3c-3.5,0-6.3-2.8-6.3-6.3c0-3.5,2.8-6.3,6.3-6.3C36.9,59.2,39.8,62.1,39.8,65.5z"></path></g></svg>