<svg xmlns="http://www.w3.org/2000/svg" xmlns:xlink="http://www.w3.org/1999/xlink" version="1.1" x="0px" y="0px" viewBox="0 0 100 100" style="enable-background:new 0 0 100 100;" xml:space="preserve"><path d="M50,0C22.4,0,0,22.4,0,50s22.4,50,50,50s50-22.4,50-50S77.6,0,50,0z M83.5,52.9c-0.8,0.4-1.6,0.7-2.4,0.7  c-1.7,0-3.4-0.9-4.3-2.5c-6-10.5-10.7-12.4-18.4-12.8v40.8c0,0.8-0.6,1.4-1.4,1.4H42.5c-0.8,0-1.4-0.6-1.4-1.4V38.2H22.3  c-2.7,0-4.9-2.2-4.9-4.9c0-2.7,2.2-4.9,4.9-4.9h31.7c5.9,0,11.7,0.2,17.1,2.9c5.5,2.6,9.9,7.3,14.3,15  C86.7,48.6,85.9,51.6,83.5,52.9z"></path></svg>